<!DOCTYPE svg PUBLIC "-//W3C//DTD SVG 1.1//EN" "http://www.w3.org/Graphics/SVG/1.1/DTD/svg11.dtd">
<!-- Uploaded to: SVG Repo, www.svgrepo.com, Transformed by: SVG Repo Mixer Tools -->
<svg fill="#000000" height="800px" width="800px" version="1.1" id="Layer_1" xmlns="http://www.w3.org/2000/svg" xmlns:xlink="http://www.w3.org/1999/xlink" viewBox="-50.2 -50.2 602.40 602.40" xml:space="preserve">
<g id="SVGRepo_bgCarrier" stroke-width="0"/>
<g id="SVGRepo_tracerCarrier" stroke-linecap="round" stroke-linejoin="round"/>
<g id="SVGRepo_iconCarrier"> <g> <g> <g> <path d="M427.638,265.102c-0.246-1.276-0.513-2.55-0.816-3.82l-23.709-100.528c4.614,1.699,9.597,2.628,14.793,2.628 c5.522,0,10-4.477,10-10V87.521c0-5.523-4.478-10-10-10c-12.3,0-23.4,5.207-31.234,13.524l-1.372-5.819 c-1.065-4.515-5.095-7.705-9.733-7.705H335.58c-2.953,0-5.755,1.305-7.654,3.565c-1.9,2.26-2.704,5.245-2.197,8.153l2.88,16.508 h-36.544c-5.522,0-10,4.477-10,10s4.478,10,10,10h40.032l15.166,86.945c2.437,15.518,0.705,31.451-5.008,46.082 c-13.363,34.225-45.738,56.407-82.479,56.511l-7.068,0.02c-30.348-4.041-30.346-19.74-30.346-25.675 c0-19.109,15.542-35.008,34.646-35.44c5.433-0.123,9.773-4.563,9.773-9.998v-27.054v-46.963c0-5.523-4.478-10-10-10H103.603 c-5.523,0-10,4.477-10,10v37.388C41.204,212.281,0,256.438,0,310.042v29.509c0,5.523,4.477,10,10,10h7.52 c-0.046,1.055-0.081,2.114-0.081,3.181c0,39.561,32.185,71.746,71.746,71.746c32.621,0,60.207-21.891,68.888-51.749h190.356 c8.682,29.857,36.268,51.749,68.888,51.749c36.299,0,66.368-27.104,71.082-62.132c9.662,3.569,13.6-6.057,13.6-13.729 C502,305.539,469.437,269.945,427.638,265.102z M426.969,301.904c17.145,3.249,31.327,14.972,37.991,30.643 c-14.805-3.749-30.668-5.692-47.056-5.692c-0.273,0-0.543,0.007-0.816,0.008C421.657,319.04,424.966,310.615,426.969,301.904z M407.905,99.818v41.267c-7.648-3.721-12.931-11.572-12.931-20.633C394.975,111.391,400.257,103.539,407.905,99.818z M113.603,180.175H246.78v26.963H113.603V180.175z M89.185,404.479c-28.533,0-51.746-23.213-51.746-51.746 c0-1.069,0.043-2.128,0.107-3.181h103.276c0.064,1.053,0.107,2.112,0.107,3.181C140.93,381.266,117.717,404.479,89.185,404.479z M350.754,352.729H162.633v-2.48c0-3.844-1.073-7.435-2.906-10.523c-3.61-6.079-10.223-10.175-17.791-10.175H20v-19.509 c0-45.714,37.191-82.905,82.905-82.905h0.698H246.78v8.139c-10.807,2.175-20.721,7.529-28.588,15.562 c-10.209,10.423-15.832,24.199-15.832,38.792c0,14.745,6.296,40.276,48.463,45.599c0.425,0.053,0.857,0.072,1.281,0.079 l7.728-0.022c21.937-0.063,43.098-6.649,61.194-19.048s31.879-29.754,39.858-50.188c7.01-17.954,9.127-37.508,6.121-56.548 c-0.009-0.053-0.018-0.106-0.026-0.159l-19.505-111.82h20.176l39.553,167.705C414.931,299.045,391.234,352.729,350.754,352.729z M417.317,404.479c-22.375,0-41.475-14.278-48.677-34.2c13.431-3.753,25.481-11.674,34.275-22.784 c4.951-0.417,9.958-0.638,14.99-0.638c17.867,0,35.434,2.688,51.111,7.692C468.055,382.242,445.241,404.479,417.317,404.479z"/> <path d="M99.181,241c-5.642,0-11.247,0.723-16.659,2.147c-5.341,1.406-8.531,6.875-7.125,12.216 c1.181,4.488,5.231,7.457,9.664,7.457c0.843,0,1.7-0.107,2.553-0.332C91.365,261.5,95.258,261,99.181,261c5.523,0,10-4.477,10-10 S104.704,241,99.181,241z"/> <path d="M64.231,262.302c-4.149-3.644-10.467-3.234-14.113,0.916c-10.456,11.906-16.214,27.198-16.214,43.058 c0,5.523,4.477,10,10,10s10-4.477,10-10c0-11.001,3.993-21.606,11.242-29.861C68.791,272.266,68.381,265.948,64.231,262.302z"/> </g> </g> </g> </g>
</svg>