<!DOCTYPE svg PUBLIC "-//W3C//DTD SVG 1.1//EN" "http://www.w3.org/Graphics/SVG/1.1/DTD/svg11.dtd">
<!-- Uploaded to: SVG Repo, www.svgrepo.com, Transformed by: SVG Repo Mixer Tools -->
<svg fill="#6C4143" height="800px" width="800px" version="1.1" id="Layer_1" xmlns="http://www.w3.org/2000/svg" xmlns:xlink="http://www.w3.org/1999/xlink" viewBox="0 0 488 488" xml:space="preserve" stroke="#6C4143">
<g id="SVGRepo_bgCarrier" stroke-width="0"/>
<g id="SVGRepo_tracerCarrier" stroke-linecap="round" stroke-linejoin="round"/>
<g id="SVGRepo_iconCarrier"> <g transform="translate(0 -540.36)"> <g> <g> <path d="M400,611.56c5.5,0,10-4.5,10-10s-4.5-9.9-10-9.9v0h-94.3c-2.1-12.7-8.1-24.3-17.5-33.5c-11.8-11.5-27.5-17.8-44.2-17.8 c-31.2,0-56.2,21.8-60.9,51.3H88c-5.5,0-10,4.5-10,10s4.5,10,10,10h95.1c1.1,6.8,3.3,13.1,6.4,18.9l-86.8,54.6 c-2.8,1.8-4.5,4.8-4.7,8.1l-10,243.4c-0.2,4.6,2.8,8.8,7.3,10l107.8,30.5v41.2c0,5.5,4.5,10,10,10h62.6c5.5,0,10-4.5,10-10v-41.5 l107-30.3c4.5-1.3,7.5-5.4,7.3-10l-10-243.4c-0.1-3.3-1.9-6.3-4.7-8.1l-86.3-54.3c3.3-5.9,5.6-12.3,6.7-19.2H400z M244,560.36 c23.9,0,42.6,18.1,42.6,41.3c0,22.7-18.7,40.5-42.6,40.5c-23.8,0-41.7-17.4-41.7-40.5C202.3,578.46,220.6,560.36,244,560.36z M265.7,1008.36h-42.6v-102.1h42.6V1008.36z M370.2,699.36l9.5,230.1l-94,26.6v-59.8c0-5.5-4.5-10-10-10h-62.6 c-5.5,0-10,4.5-10,10v60.1l-94.8-26.8l9.5-230.2l84.2-53c10.9,9.9,25.6,15.8,42,15.8c16.5,0,31.3-5.9,42.3-15.6L370.2,699.36z"/> <path d="M184.5,714.26c-5.3-1.7-10.9,1.1-12.6,6.4c-1.7,5.2,1.1,10.9,6.4,12.6l62.6,20.3c1,0.3,2.1,0.5,3.1,0.5s2.1-0.2,3.1-0.5 l62.6-20.3c5.2-1.7,8.1-7.3,6.4-12.6c-1.7-5.2-7.3-8.1-12.6-6.4l-59.5,19.3L184.5,714.26z"/> <path d="M303.5,765.56l-59.5,19.3l-59.5-19.3c-5.3-1.7-10.9,1.1-12.6,6.4c-1.7,5.2,1.1,10.9,6.4,12.6l62.6,20.3 c1,0.3,2.1,0.5,3.1,0.5s2.1-0.2,3.1-0.5l62.6-20.3c5.2-1.7,8.1-7.3,6.4-12.6C314.4,766.76,308.8,763.86,303.5,765.56z"/> <path d="M303.5,816.06l-59.5,19.3l-59.5-19.3c-5.2-1.7-10.9,1.1-12.6,6.4c-1.7,5.2,1.1,10.9,6.4,12.6l62.6,20.3 c1,0.3,2.1,0.5,3.1,0.5s2.1-0.2,3.1-0.5l62.6-20.3c5.2-1.7,8.1-7.3,6.4-12.6C314.4,817.26,308.8,814.36,303.5,816.06z"/> </g> </g> </g> </g>
</svg>